<svg width="45" height="45" viewBox="0 0 45 45" fill="none" xmlns="http://www.w3.org/2000/svg">
<g clip-path="url(#clip0_290_34)">
<path d="M8.82325 0.0112305C3.97599 0.0112305 0.00878906 3.97834 0.00878906 8.8257V36.1785C0.00878906 41.0258 3.9759 44.9916 8.82325 44.9916H36.1761C41.0234 44.9916 44.9891 41.0259 44.9891 36.1785V8.8257C44.9891 3.97843 41.0234 0.0112305 36.1761 0.0112305H8.82325ZM11.0402 7.43389C13.3644 7.43389 14.796 8.95966 14.8402 10.9653C14.8402 12.9266 13.3643 14.4952 10.9953 14.4952H10.9517C8.67174 14.4952 7.19812 12.9267 7.19812 10.9653C7.19812 8.95971 8.71638 7.43389 11.0402 7.43389ZM31.0688 16.8078C35.5386 16.8078 38.8894 19.7293 38.8894 26.0075V37.7277H32.0965V26.7933C32.0965 24.0456 31.1134 22.1709 28.6551 22.1709C26.7784 22.1709 25.6598 23.4345 25.1686 24.655C24.9892 25.0917 24.9451 25.7016 24.9451 26.3125V37.7277H18.1522C18.1522 37.7277 18.2414 19.2051 18.1522 17.2872H24.9465V20.1818C25.8492 18.789 27.4639 16.8078 31.0688 16.8078ZM7.5988 17.2887H14.3917V37.7278H7.5988V17.2887Z" fill="black"/>
</g>
<defs>
<clipPath id="clip0_290_34">
<rect width="45" height="45" fill="white"/>
</clipPath>
</defs>
</svg>
