<svg width="50" height="50" viewBox="0 0 50 50" fill="none" xmlns="http://www.w3.org/2000/svg">
<path d="M42.0002 14.2499C36.0002 4.99994 23.7502 2.24994 14.2502 7.99994C5.00018 13.7499 2.00018 26.2499 8.00018 35.4999L8.50018 36.2499L6.50018 43.7499L14.0002 41.7499L14.7502 42.2499C18.0002 43.9999 21.5002 44.9999 25.0002 44.9999C28.7502 44.9999 32.5002 43.9999 35.7502 41.9999C45.0002 35.9999 47.7502 23.7499 42.0002 14.2499V14.2499ZM36.7502 33.4999C35.7502 34.9999 34.5002 35.9999 32.7502 36.2499C31.7502 36.2499 30.5002 36.7499 25.5002 34.7499C21.2502 32.7499 17.7502 29.4999 15.2502 25.7499C13.7502 23.9999 13.0002 21.7499 12.7502 19.4999C12.7502 17.4999 13.5002 15.7499 14.7502 14.4999C15.2502 13.9999 15.7502 13.7499 16.2502 13.7499H17.5002C18.0002 13.7499 18.5002 13.7499 18.7502 14.7499C19.2502 15.9999 20.5002 18.9999 20.5002 19.2499C20.7502 19.4999 20.7502 19.9999 20.5002 20.2499C20.7502 20.7499 20.5002 21.2499 20.2502 21.4999C20.0002 21.7499 19.7502 22.2499 19.5002 22.4999C19.0002 22.7499 18.7502 23.2499 19.0002 23.7499C20.0002 25.2499 21.2502 26.7499 22.5002 27.9999C24.0002 29.2499 25.5002 30.2499 27.2502 30.9999C27.7502 31.2499 28.2502 31.2499 28.5002 30.7499C28.7502 30.2499 30.0002 28.9999 30.5002 28.4999C31.0002 27.9999 31.2502 27.9999 31.7502 28.2499L35.7502 30.2499C36.2502 30.4999 36.7502 30.7499 37.0002 30.9999C37.2502 31.7499 37.2502 32.7499 36.7502 33.4999V33.4999Z" fill="black"/>
</svg>
